<?xml version="1.0" encoding="utf-8"?>
<!-- Generator: Adobe Illustrator 17.1.0, SVG Export Plug-In . SVG Version: 6.00 Build 0)  -->
<!DOCTYPE svg PUBLIC "-//W3C//DTD SVG 1.1//EN" "http://www.w3.org/Graphics/SVG/1.1/DTD/svg11.dtd">
<svg version="1.1" xmlns="http://www.w3.org/2000/svg" xmlns:xlink="http://www.w3.org/1999/xlink" x="0px" y="0px"
	 viewBox="0 0 6236.2 5102.4" enable-background="new 0 0 6236.2 5102.4" xml:space="preserve">
<g id="outline">
	<polygon fill="none" stroke="#231F20" stroke-width="0.15" points="1412.9,722.8 1900.1,1004.1 2143.7,863.5 2387.3,1004.1 
		2874.5,722.9 3118.1,863.5 3361.7,722.9 3848.9,1004.2 3848.9,1285.4 4092.5,1426.1 4336.1,1285.4 4823.3,1566.7 5066.9,1426.1 
		5310.5,1566.7 5310.5,1848 5797.7,2129.3 5797.7,2410.6 6041.3,2551.2 6041.3,3113.8 5797.7,3254.4 5797.7,3535.7 5310.5,3817 
		5310.5,4098.2 5066.9,4238.9 4823.3,4098.2 4336.1,4379.5 4092.5,4238.9 4092.5,3676.3 3848.9,3535.7 3848.9,3254.4 3361.7,2973.1 
		3118.1,3113.7 2874.5,2973.1 2387.3,3254.4 2387.3,3535.6 2143.7,3676.3 1900.1,3535.6 1412.9,3816.9 1169.3,3676.3 925.7,3816.9 
		438.5,3535.7 438.5,3254.4 194.9,3113.7 194.9,2551.2 438.5,2410.5 438.5,2129.3 925.7,1848 925.7,1566.7 1169.3,1426 
		1169.3,863.5 	"/>
</g>
<g id="tesselation_x5F_no_x5F_offset">
	<polygon fill="none" stroke="#231F20" stroke-width="1.65" points="2143.7,1988.6 2143.7,1426 2387.3,1285.4 2874.5,1566.7 
		2874.5,1848 2387.3,2129.3 	"/>
	<polygon fill="none" stroke="#231F20" stroke-width="1.65" points="2387.3,2410.5 2387.3,2129.3 2874.5,1848 3118.1,1988.6 
		3118.1,2551.2 2874.5,2691.8 	"/>
	<polygon fill="none" stroke="#231F20" stroke-width="1.65" points="2143.7,3113.8 2143.7,2551.2 2387.3,2410.5 2874.5,2691.8 
		2874.5,2973.1 2387.3,3254.4 	"/>
	<polygon fill="none" stroke="#231F20" stroke-width="1.65" points="1900.1,2410.5 1900.1,2129.3 2143.7,1988.6 2387.3,2129.3 
		2387.3,2410.5 2143.7,2551.2 	"/>
	<polygon fill="none" stroke="#231F20" stroke-width="1.65" points="1412.9,1848 1412.9,1566.7 1900.1,1285.4 2143.7,1426 
		2143.7,1988.6 1900.1,2129.3 	"/>
	<polygon fill="none" stroke="#231F20" stroke-width="1.65" points="1169.3,2551.2 1169.3,1988.6 1412.9,1848 1900.1,2129.3 
		1900.1,2410.5 1412.9,2691.8 	"/>
	<polygon fill="none" stroke="#231F20" stroke-width="1.65" points="1412.9,2973.1 1412.9,2691.8 1900.1,2410.5 2143.7,2551.2 
		2143.7,3113.8 1900.1,3254.4 	"/>
	<polygon fill="none" stroke="#231F20" stroke-width="1.65" points="3118.1,2551.2 3118.1,1988.6 3361.7,1848 3848.9,2129.2 
		3848.9,2410.5 3361.7,2691.8 	"/>
	<polygon fill="none" stroke="#231F20" stroke-width="1.65" points="3361.7,2973.1 3361.7,2691.8 3848.9,2410.5 4092.5,2551.2 
		4092.5,3113.7 3848.9,3254.4 	"/>
	<polygon fill="none" stroke="#231F20" stroke-width="1.65" points="2874.5,2973.1 2874.5,2691.8 3118.1,2551.2 3361.7,2691.8 
		3361.7,2973.1 3118.1,3113.7 	"/>
	<polygon fill="none" stroke="#231F20" stroke-width="1.65" points="1169.3,1426 1169.3,863.5 1412.9,722.8 1900.1,1004.1 
		1900.1,1285.4 1412.9,1566.7 	"/>
	<polygon fill="none" stroke="#231F20" stroke-width="1.65" points="925.7,1848 925.7,1566.7 1169.3,1426 1412.9,1566.7 
		1412.9,1848 1169.3,1988.6 	"/>
	<polygon fill="none" stroke="#231F20" stroke-width="1.65" points="438.5,2410.5 438.5,2129.3 925.7,1848 1169.3,1988.6 
		1169.3,2551.2 925.7,2691.8 	"/>
	<polygon fill="none" stroke="#231F20" stroke-width="1.65" points="5066.9,3676.3 5066.9,3113.8 5310.5,2973.1 5797.7,3254.4 
		5797.7,3535.7 5310.5,3817 	"/>
	<polygon fill="none" stroke="#231F20" stroke-width="1.65" points="4823.3,4098.2 4823.3,3817 5066.9,3676.3 5310.5,3817 
		5310.5,4098.2 5066.9,4238.9 	"/>
	<polygon fill="none" stroke="#231F20" stroke-width="1.65" points="4336.1,3535.7 4336.1,3254.4 4823.3,2973.1 5066.9,3113.8 
		5066.9,3676.3 4823.3,3817 	"/>
	<polygon fill="none" stroke="#231F20" stroke-width="1.65" points="4092.5,4238.9 4092.5,3676.3 4336.1,3535.7 4823.3,3817 
		4823.3,4098.2 4336.1,4379.5 	"/>
	<polygon fill="none" stroke="#231F20" stroke-width="1.65" points="4092.5,3113.8 4092.5,2551.2 4336.1,2410.5 4823.3,2691.8 
		4823.3,2973.1 4336.1,3254.4 	"/>
	<polygon fill="none" stroke="#231F20" stroke-width="1.65" points="3848.9,3535.7 3848.9,3254.4 4092.5,3113.8 4336.1,3254.4 
		4336.1,3535.7 4092.5,3676.3 	"/>
	<polygon fill="none" stroke="#231F20" stroke-width="1.65" points="1169.3,3676.3 1169.3,3113.7 1412.9,2973.1 1900.1,3254.4 
		1900.1,3535.7 1412.9,3816.9 	"/>
	<polygon fill="none" stroke="#231F20" stroke-width="1.65" points="925.7,2973.1 925.7,2691.8 1169.3,2551.2 1412.9,2691.8 
		1412.9,2973.1 1169.3,3113.7 	"/>
	<polygon fill="none" stroke="#231F20" stroke-width="1.65" points="194.9,3113.7 194.9,2551.2 438.5,2410.5 925.7,2691.8 
		925.7,2973.1 438.5,3254.4 	"/>
	<polygon fill="none" stroke="#231F20" stroke-width="1.65" points="438.5,3535.7 438.5,3254.4 925.7,2973.1 1169.3,3113.7 
		1169.3,3676.3 925.7,3816.9 	"/>
	<polygon fill="none" stroke="#231F20" stroke-width="1.65" points="1900.1,3535.6 1900.1,3254.4 2143.7,3113.7 2387.3,3254.4 
		2387.3,3535.6 2143.7,3676.3 	"/>
	<polygon fill="none" stroke="#231F20" stroke-width="1.65" points="3118.1,1426.1 3118.1,863.5 3361.7,722.9 3848.9,1004.2 
		3848.9,1285.4 3361.7,1566.7 	"/>
	<polygon fill="none" stroke="#231F20" stroke-width="1.65" points="2387.3,1285.4 2387.3,1004.2 2874.5,722.9 3118.1,863.5 
		3118.1,1426.1 2874.5,1566.7 	"/>
	<polygon fill="none" stroke="#231F20" stroke-width="1.65" points="4092.5,1988.6 4092.5,1426.1 4336.1,1285.4 4823.3,1566.7 
		4823.3,1848 4336.1,2129.3 	"/>
	<polygon fill="none" stroke="#231F20" stroke-width="1.65" points="3361.7,1848 3361.7,1566.7 3848.9,1285.4 4092.5,1426.1 
		4092.5,1988.6 3848.9,2129.3 	"/>
	<polygon fill="none" stroke="#231F20" stroke-width="1.65" points="5066.9,2551.2 5066.9,1988.6 5310.5,1848 5797.7,2129.3 
		5797.7,2410.6 5310.5,2691.9 	"/>
	<polygon fill="none" stroke="#231F20" stroke-width="1.65" points="5310.5,2973.1 5310.5,2691.9 5797.7,2410.6 6041.3,2551.2 
		6041.3,3113.8 5797.7,3254.4 	"/>
	<polygon fill="none" stroke="#231F20" stroke-width="1.65" points="4823.3,1848 4823.3,1566.7 5066.9,1426.1 5310.5,1566.7 
		5310.5,1848 5066.9,1988.7 	"/>
	<polygon fill="none" stroke="#231F20" stroke-width="1.65" points="4336.1,2410.6 4336.1,2129.3 4823.3,1848 5066.9,1988.7 
		5066.9,2551.2 4823.3,2691.9 	"/>
	<polygon fill="none" stroke="#231F20" stroke-width="1.65" points="1900.1,1285.4 1900.1,1004.1 2143.7,863.5 2387.3,1004.1 
		2387.3,1285.4 2143.7,1426.1 	"/>
	<polygon fill="none" stroke="#231F20" stroke-width="1.65" points="2874.5,1848 2874.5,1566.7 3118.1,1426 3361.7,1566.7 
		3361.7,1848 3118.1,1988.6 	"/>
	<polygon fill="none" stroke="#231F20" stroke-width="1.65" points="4823.3,2973.1 4823.3,2691.8 5066.9,2551.2 5310.5,2691.8 
		5310.5,2973.1 5066.9,3113.8 	"/>
	<polygon fill="none" stroke="#231F20" stroke-width="1.65" points="3848.9,2410.6 3848.9,2129.3 4092.5,1988.6 4336.1,2129.3 
		4336.1,2410.6 4092.5,2551.2 	"/>
</g>
<g id="tesselation_x5F_offset">
	<polygon class="polygon plan" id="polygon_15" fill="none" stroke="#231F20" stroke-width="1.65" points="2186.2,1964.1 2186.2,1450.6 2387.3,1334.5 2832,1591.2 2832,1823.4 2387.3,2080.1 	"/>
	<polygon class="polygon plan" id="polygon_16" fill="none" stroke="#231F20" stroke-width="1.65" points="2429.8,2386 2429.8,2153.8 2874.5,1897.1 3075.6,2013.2 3075.6,2526.6 2874.5,2642.7 	"/>
	<polygon class="polygon plan" id="polygon_13" fill="none" stroke="#231F20" stroke-width="1.65" points="2186.2,3089.2 2186.2,2575.7 2387.3,2459.6 2832,2716.4 2832,2948.6 2387.3,3205.3 	"/>
	<polygon class="polygon plan" id="polygon_12" fill="none" stroke="#231F20" stroke-width="1.65" points="1942.6,2386 1942.6,2153.8 2143.7,2037.7 2344.8,2153.8 2344.8,2386 2143.7,2502.1 	"/>
	<polygon class="polygon plan" id="polygon_11" fill="none" stroke="#231F20" stroke-width="1.65" points="1455.4,1823.4 1455.4,1591.2 1900.1,1334.5 2101.2,1450.6 2101.2,1964.1 1900.1,2080.1 	"/>
	<polygon class="polygon plan" id="polygon_3s7" fill="none" stroke="#231F20" stroke-width="1.65" points="1211.8,2526.6 1211.8,2013.2 1412.9,1897.1 1857.6,2153.8 1857.6,2386 1412.9,2642.7 	"/>
	<polygon class="polygon plan" id="polygon_3s8" fill="none" stroke="#231F20" stroke-width="1.65" points="1455.4,2948.6 1455.4,2716.4 1900.1,2459.6 2101.2,2575.7 2101.2,3089.2 1900.1,3205.3 	"/>
	<polygon class="polygon plan" id="polygon_20" fill="none" stroke="#231F20" stroke-width="1.65" points="3160.6,2526.6 3160.6,2013.2 3361.7,1897.1 3806.4,2153.8 3806.4,2386 3361.7,2642.7 	"/>
	<polygon class="polygon plan" id="polygon_21" fill="none" stroke="#231F20" stroke-width="1.65" points="3404.2,2948.5 3404.2,2716.4 3848.9,2459.6 4050,2575.7 4050,3089.2 3848.9,3205.3 	"/>
	<polygon class="polygon plan" id="polygon_17" fill="none" stroke="#231F20" stroke-width="1.65" points="2917,2948.5 2917,2716.4 3118.1,2600.3 3319.2,2716.4 3319.2,2948.5 3118.1,3064.6 	"/>
	<polygon class="polygon plan" id="polygon_10" fill="none" stroke="#231F20" stroke-width="1.65" points="1211.8,1401.5 1211.8,888 1412.9,771.9 1857.6,1028.7 1857.6,1260.8 1412.9,1517.6 	"/>
	<polygon class="polygon plan" id="polygon_3s6" fill="none" stroke="#231F20" stroke-width="1.65" points="968.2,1823.4 968.2,1591.2 1169.3,1475.1 1370.4,1591.2 1370.4,1823.4 1169.3,1939.5 	"/>
	<polygon class="polygon plan" id="polygon_3s3" fill="none" stroke="#231F20" stroke-width="1.65" points="481,2386 481,2153.8 925.7,1897.1 1126.8,2013.2 1126.8,2526.6 925.7,2642.7 	"/>
	<polygon class="polygon plan" id="polygon_33" fill="none" stroke="#231F20" stroke-width="1.65" points="5109.4,3651.8 5109.4,3138.3 5310.5,3022.2 5755.2,3278.9 5755.2,3511.1 5310.5,3767.9 	"/>
	<polygon class="polygon plan" id="polygon_29" fill="none" stroke="#231F20" stroke-width="1.65" points="4865.8,4073.7 4865.8,3841.5 5066.9,3725.4 5268,3841.5 5268,4073.7 5066.9,4189.8 	"/>
	<polygon class="polygon plan" id="polygon_28" fill="none" stroke="#231F20" stroke-width="1.65" points="4378.6,3511.1 4378.6,3278.9 4823.3,3022.2 5024.4,3138.3 5024.4,3651.8 4823.3,3767.9 	"/>
	<polygon class="polygon plan" id="polygon_23" fill="none" stroke="#231F20" stroke-width="1.65" points="4135,4214.3 4135,3700.9 4336.1,3584.8 4780.8,3841.5 4780.8,4073.7 4336.1,4330.4 	"/>
	<polygon class="polygon plan" id="polygon_27" fill="none" stroke="#231F20" stroke-width="1.65" points="4135,3089.2 4135,2575.7 4336.1,2459.6 4780.8,2716.4 4780.8,2948.6 4336.1,3205.3 	"/>
	<polygon class="polygon plan" id="polygon_22" fill="none" stroke="#231F20" stroke-width="1.65" points="3891.4,3511.1 3891.4,3278.9 4092.5,3162.9 4293.6,3278.9 4293.6,3511.1 4092.5,3627.2 	"/>
	<polygon class="polygon plan" id="polygon_3s5" fill="none" stroke="#231F20" stroke-width="1.65" points="1211.8,3651.7 1211.8,3138.3 1412.9,3022.2 1857.6,3278.9 1857.6,3511.1 1412.9,3767.8 	"/>
	<polygon class="polygon plan" id="polygon_3s4" fill="none" stroke="#231F20" stroke-width="1.65" points="968.2,2948.5 968.2,2716.4 1169.3,2600.3 1370.4,2716.4 1370.4,2948.5 1169.3,3064.6 	"/>
	<polygon class="polygon plan" id="polygon_3s1" fill="none" stroke="#231F20" stroke-width="1.65" points="237.4,3089.2 237.4,2575.7 438.5,2459.6 883.2,2716.4 883.2,2948.5 438.5,3205.3 	"/>
	<polygon class="polygon plan" id="polygon_3s2" fill="none" stroke="#231F20" stroke-width="1.65" points="481,3511.1 481,3278.9 925.7,3022.2 1126.8,3138.3 1126.8,3651.7 925.7,3767.8 	"/>
	<polygon class="polygon plan" id="polygon_3s9" fill="none" stroke="#231F20" stroke-width="1.65" points="1942.6,3511.1 1942.6,3278.9 2143.7,3162.8 2344.8,3278.9 2344.8,3511.1 2143.7,3627.2 	"/>
	<polygon class="polygon plan" id="polygon_24" fill="none" stroke="#231F20" stroke-width="1.65" points="3160.6,1401.5 3160.6,888.1 3361.7,772 3806.4,1028.7 3806.4,1260.9 3361.7,1517.6 	"/>
	<polygon class="polygon plan" id="polygon_18" fill="none" stroke="#231F20" stroke-width="1.65" points="2429.8,1260.9 2429.8,1028.7 2874.5,772 3075.6,888.1 3075.6,1401.5 2874.5,1517.6 	"/>
	<polygon class="polygon plan" id="polygon_30" fill="none" stroke="#231F20" stroke-width="1.65" points="4135,1964.1 4135,1450.6 4336.1,1334.5 4780.8,1591.3 4780.8,1823.4 4336.1,2080.2 	"/>
	<polygon class="polygon plan" id="polygon_25" fill="none" stroke="#231F20" stroke-width="1.65" points="3404.2,1823.4 3404.2,1591.3 3848.9,1334.5 4050,1450.6 4050,1964.1 3848.9,2080.2 	"/>
	<polygon class="polygon plan" id="polygon_35" fill="none" stroke="#231F20" stroke-width="1.65" points="5109.4,2526.7 5109.4,2013.2 5310.5,1897.1 5755.2,2153.8 5755.2,2386 5310.5,2642.8 	"/>
	<polygon class="polygon plan" id="polygon_36" fill="none" stroke="#231F20" stroke-width="1.65" points="5353,2948.6 5353,2716.4 5797.7,2459.7 5998.8,2575.8 5998.8,3089.2 5797.7,3205.3 	"/>
	<polygon class="polygon plan" id="polygon_34" fill="none" stroke="#231F20" stroke-width="1.65" points="4865.8,1823.5 4865.8,1591.3 5066.9,1475.2 5268,1591.3 5268,1823.5 5066.9,1939.5 	"/>
	<polygon class="polygon plan" id="polygon_31" fill="none" stroke="#231F20" stroke-width="1.65" points="4378.6,2386 4378.6,2153.8 4823.3,1897.1 5024.4,2013.2 5024.4,2526.7 4823.3,2642.8 	"/>
	<polygon class="polygon plan" id="polygon_14" fill="none" stroke="#231F20" stroke-width="1.65" points="1942.6,1260.9 1942.6,1028.7 2143.7,912.6 2344.8,1028.7 2344.8,1260.9 2143.7,1377 	"/>
	<polygon class="polygon plan" id="polygon_19" fill="none" stroke="#231F20" stroke-width="1.65" points="2917,1823.4 2917,1591.2 3118.1,1475.2 3319.2,1591.2 3319.2,1823.4 3118.1,1939.5 	"/>
	<polygon class="polygon plan" id="polygon_32" fill="none" stroke="#231F20" stroke-width="1.65" points="4865.8,2948.6 4865.8,2716.4 5066.9,2600.3 5268,2716.4 5268,2948.6 5066.9,3064.7 	"/>
	<polygon class="polygon plan" id="polygon_26" fill="none" stroke="#231F20" stroke-width="1.65" points="3891.4,2386 3891.4,2153.8 4092.5,2037.7 4293.6,2153.8 4293.6,2386 4092.5,2502.1 	"/>
</g>
</svg>
